<!-- Taken from https://i.etsystatic.com/33355737/r/il/6d21f9/4847287120/il_fullxfull.4847287120_duns.jpg -->
<svg xmlns="http://www.w3.org/2000/svg" fill="none" viewBox="0 0 1871 2073"><path fill="#00000080" d="M775 2071q-26-1-49-18l-13-7q-6-3-16 1c-36 13-55 16-83 15-38-1-71-13-90-33a92 92 0 0 1-23-42q-3-12-7-14-2-4-30-17-74-37-131-80a494 494 0 0 1-166-200c-41-98-39-194 6-271q42-75 105-95c14-4 23-6 37-5 15 0 22 2 34 8 9 5 21 17 27 26 7 12 12 34 10 49-2 19-7 34-23 67-14 27-16 33-19 47-4 13-4 32 0 45q7 30 30 52 13 13 17 11 3 0 8-16c6-19 18-42 31-58 6-9 7-11 10-24a799 799 0 0 1 143-302c13-19 13-20 3-25a497 497 0 0 1-209-176c-10-14-15-18-24-16-6 1-33 10-44 15-27 11-46 22-67 41l-12 9c-6 1-13-5-13-10 0-10 27-34 56-50 21-11 60-25 72-25l3-2q3-4 0-12c-2-5-10-13-15-16-4-1-5-2-15-1-30 2-80 11-113 20q-40 11-73 29c-13 6-17 7-21 3-5-5-5-14 1-18a529 529 0 0 1 213-58c2-2 2-4-3-16-7-20-7-20-27-20-42 1-83 8-113 19-15 6-18 7-22 5q-5-3-6-10-1-11 37-23 34-10 82-13c25-2 28-2 30-4 5-3 5-6-1-33-2-5-5-6-20-8H170q-79 7-143 33c-18 7-22 7-26-2-4-10 0-13 31-25a609 609 0 0 1 240-29l20 1 2-3c3-3 3-5 2-25a545 545 0 0 1 28-200c10-31 9-29 1-51a734 734 0 0 1-28-450c9-35 14-47 21-55 12-13 23-12 77 4q173 53 305 166c24 22 25 22 32 22a757 757 0 0 1 272-26 707 707 0 0 1 132 25c8 2 10 1 27-15A796 796 0 0 1 1501 5c25-6 34-6 43-2 13 6 18 17 28 60a935 935 0 0 1 21 178 721 721 0 0 1-43 263c-7 19-7 20-7 29s0 11 6 29a549 549 0 0 1 28 181v43l3 2c3 3-1 3 48 3 51-1 84 2 122 8 49 8 110 26 118 37q6 6 0 14-3 4-8 3l-15-4c-38-16-87-28-138-33a632 632 0 0 0-134 3c-4 2-5 6-7 20l-3 14 2 2c2 1 5 2 22 3 33 2 56 6 78 11 20 6 43 15 46 20 3 4 1 14-3 17-4 1-7 1-18-3a324 324 0 0 0-131-21q-6 3-11 18t1 16l22 4a604 604 0 0 1 171 46c19 9 22 11 22 17 0 4-4 11-6 13q-7 2-15-3a553 553 0 0 0-192-51c-9-1-11-1-16 2l-8 5c-4 3-8 11-9 16q-2 6 7 7a247 247 0 0 1 107 50q16 12 18 20c3 7 3 9-2 14-6 5-9 4-21-7s-19-17-31-24q-29-18-69-29c-17-5-21-5-24-3l-12 17a525 525 0 0 1-215 177c-1 2 2 7 15 25a858 858 0 0 1 139 294c4 17 7 23 15 34q36 46 43 118 10 112-41 210c-16 30-29 50-64 91q-9 11-13 28-16 61-88 73c-13 3-42 3-55 0q-21-3-39-11c-16-5-21-7-25-6q-4 1-12 7-18 14-39 19c-8 2-12 3-24 3-16 0-23-1-36-6-10-4-15-6-25-13l-12-6-21 1a1143 1143 0 0 1-136-1l-11 6q-18 11-34 15c-7 2-24 5-28 4zm326-27q32-6 51-34c13-18 19-35 35-107 22-101 39-192 54-297a939 939 0 0 0-15-381q-5-11-11-11a774 774 0 0 1-218 44c-17 0-19 0-14 4l9 5c7 2 17 7 21 11 13 13 13 45-1 67-4 8-15 20-23 25a97 97 0 0 1-65 17q-35-4-58-28-26-31-10-65c5-9 17-21 29-27l12-6q-2-3-32-4-103-7-194-37c-19-7-21-7-24-1a661 661 0 0 0-29 224c1 51 2 70 11 134a4949 4949 0 0 0 76 405q16 48 58 60c7 2 10 2 24 2 17 0 24-1 36-7q31-18 42-59c6-30 5-96-4-184a4031 4031 0 0 0-47-343c1-10 17-14 22-5a3217 3217 0 0 1 60 457c2 48-1 77-12 104q-7 13-3 13c3 2 108 2 110 1q4-1 0-13c-7-14-9-25-12-48-2-20-2-68 0-97a3854 3854 0 0 1 54-412q5-13 16-9 8 2 8 11l-7 46c-15 89-28 193-38 293-7 79-9 159-4 182q9 38 32 55 28 21 61 15m-460-10q6-2-2-13c-10-17-19-41-19-50q0-9 8-11 10-4 17 16c6 17 16 34 24 43q4 5 9 5 9-1 11-7 1-4-3-11-8-19-14-45l-6-23c-2-12-4-15-16-22q-21-12-44-13-39-1-64 23a55 55 0 0 0-16 42q-1 29 23 47c6 5 15 10 16 9l-5-13q-9-23-10-34 0-10 6-12 12-6 18 14 15 46 41 55c5 2 23 1 26 0m621-2q20-10 34-50c5-14 7-17 11-18s11 2 13 6q3 7-8 37l-6 18 6-3q34-20 33-53c0-31-20-55-52-63-8-2-12-3-24-3s-16 0-23 2c-11 4-25 11-30 16-6 6-8 10-11 23a297 297 0 0 1-22 71q1 5 9 8c9 2 17-7 31-37 11-23 11-24 14-26q6-3 13 3 3 2 3 7c0 6-8 27-16 44-7 14-8 16-7 18q4 4 17 3c7 0 9-1 15-3m-754-104q22-37 67-48c21-6 55-3 71 5q12 6 8-10a2238 2238 0 0 1-37-202c-6-38-15-66-31-93q-20-37-56-50c-7-2-11-3-20-3-18-1-30 2-44 12q-22 15-36 45c-30 68-28 158 5 243 13 33 34 70 56 99 10 13 11 13 17 2m865 5 26-36a357 357 0 0 0 60-259c-6-29-17-57-29-75a76 76 0 0 0-107-24q-32 23-51 71c-7 19-9 30-23 116a2672 2672 0 0 1-30 159l11-2q54-16 97 9c11 7 25 20 32 33 8 12 9 13 14 8m-427-570c22-3 41-15 48-31 7-14 8-34 1-40l-11-5q-22-9-30-22l-2-3-2 3-3 11q-3 12-13 10-10 1-8-9l1-11 1-5-7 6-21 16c-22 14-28 21-28 35 0 11 3 17 13 27q14 14 36 18 13 3 25 0m54-133c67-6 115-14 166-29q111-31 198-98a458 458 0 0 0 106-113c0-4-4-4-25-4s-26-1-30-5c-3-3-3-12 0-15 5-5 23-6 44-4s24 1 30-4 11-16 7-18h-53q-7-2-7-10c0-9 5-12 32-13l26-1c17-1 20-2 24-12l5-12c2-9 0-10-25-6l-42 7q-15 4-19 2c-5-3-7-12-4-16 2-5 16-9 62-17l14-2c1-1-17-17-21-19-7-3-12-2-30 6-15 6-17 6-22 1q-4-3-3-7-1-5 4-8l12-7q13-6 10-10l-24-24c-84-86-163-182-219-266q-85-131-117-264c-12-49-12-48-40-54l-16-1c-10 0-13 3-14 18q-4 30-13 59c-15 46-45 98-86 146a890 890 0 0 1-228 183 2411 2411 0 0 1-372 185l12 4c56 13 90 27 94 36q3 7-3 13c-4 3-9 2-24-4a415 415 0 0 0-77-23c-3 1-2 15 2 22q5 9 15 13l15 3c27 3 57 9 65 13q9 4 6 13-1 4-4 6l-4 2-20-4c-52-9-58-10-59-7q-4 10 7 23c7 8 10 9 28 9l39 2 7 3q3 2 3 7 0 8-7 11c-5 2-5 2-28 0-22-1-24-1-25 1q-3 1-1 6 3 11 11 15l33 1c30-1 35 0 39 4 2 2 2 10 0 13-3 5-7 6-30 6s-26 0-26 5c1 6 27 40 49 62q110 113 282 156 67 16 136 22l20 1c14 1 97 0 115-2M412 414q17-26 36-42 7-7 7-9 1-5-10-10c-10-5-18-13-18-16q0-7 5-7l9 1c10 3 31 3 41 0l9-2-12-7c-16-9-20-12-20-17q-1-4 2-7c3-3 3-3 9-2 28 3 44 1 63-5q16-5 15-8l-10-12q-15-14-20-27-3-7 0-11c3-3 7-2 20 6 15 9 18 11 24 17q10 8 17 8c9 0 22-10 21-14s-45-38-75-58c-39-26-83-51-121-67-16-7-20-8-23-4s-7 50-8 96c-2 59 7 136 20 178l12 29zm1057-3q39-98 22-272c-2-19-2-21-7-21q-7 0-52 23a860 860 0 0 0-164 110c0 6 17 13 27 11q4 0 9-5c13-11 39-25 44-25q7 0 7 6 1 5-23 32c-11 13-11 14-5 18a127 127 0 0 0 67 8c12-1 14 0 17 4 3 7 0 11-19 21l-13 8c1 2 13 4 23 4 9 1 13 0 21-1 13-3 16-2 18 1q3 2 1 6c-2 3-12 11-21 15q-8 4-8 7 1 3 14 17a225 225 0 0 1 37 46z"/><path fill="#00000080" d="M865 1065c-13-1-27-8-34-16q-5-4-4-9 0-6 5-11 6-4 17 3 21 13 40 7c14-5 27-15 30-26 2-4 3-28 3-37s-5-16-20-30q-31-29-29-44 0-15 24-22 34-10 66-3 25 7 31 18 10 17-31 54c-16 14-16 15-16 40 0 17 1 20 3 25 6 17 30 30 50 27q9-1 23-10 12-8 18 3 7 13-17 25-13 8-34 6-26 0-42-15c-11-10-14-10-25-2a75 75 0 0 1-58 17m79-133 13-14c13-13 12-15-9-18-21-2-44 2-46 7-1 3 17 24 26 28 8 4 10 4 16-3m-313 28q-47-5-79-37c-54-54-53-142 3-195q30-28 68-36h47c55 11 99 55 110 111a136 136 0 0 1-150 158m27-25q12-2 3-2c-5 0-18-3-29-7q-51-16-88-79l-5-9 1 8q3 33 29 60 39 36 89 29m-29-124c20-10 29-33 22-54-4-8-13-18-22-21-25-10-54 6-57 31q-2 20 12 36c9 9 16 12 30 11 8 0 10 0 15-3m577 148a138 138 0 0 1-119-133c0-26 6-46 19-69a134 134 0 0 1 249 43c2 12 3 38 1 50a136 136 0 0 1-150 109m33-25c42-6 80-39 89-77q2-8 1-11 1-5-4 5-37 69-115 80-16 2 1 3 13 3 28 0m-45-123q23-9 28-33c2-17-8-35-24-43-6-3-8-3-17-3-10 0-11 0-18 3q-12 6-18 17c-9 17-5 39 9 52 10 10 26 13 40 7m405-152q-8-4-6-15c1-5 7-8 31-15l160-47q15-2 16 13 1 5-4 8c-4 4-2 3-57 19-102 30-127 38-132 38zm-1336 0L86 608q-14-6-10-16 4-11 19-8l168 50q17 5 16 13-1 15-17 13"/></svg>
